<svg width="1440" height="682" viewBox="0 0 1440 682" fill="none" xmlns="http://www.w3.org/2000/svg">
<mask id="mask0_1_5" style="mask-type:alpha" maskUnits="userSpaceOnUse" x="-2" y="3" width="1440" height="652">
<rect x="-2" y="3" width="1440" height="652" fill="white"/>
</mask>
<g mask="url(#mask0_1_5)">
</g>
<g style="mix-blend-mode:multiply" opacity="0.1" clip-path="url(#clip0_1_5)">
<path d="M93.6515 491.098C88.6148 488.468 85.4966 483.218 85.5973 477.538C87.2583 383.02 -56.9134 339.619 -58.3685 339.193C-66.315 336.86 -70.873 328.533 -68.548 320.586C-66.2229 312.64 -57.9048 308.078 -49.9562 310.397C-48.2733 310.888 -8.27813 322.713 31.9947 348.412C78.0636 377.809 105.809 413.654 113.446 453.19C150.254 436.861 195.524 439.144 245.976 460.146C290.08 478.502 322.641 504.568 324.007 505.668C330.456 510.869 331.468 520.312 326.269 526.761C321.067 533.209 311.627 534.218 305.177 529.022C304.002 528.077 185.993 434.576 109.382 489.957C104.778 493.286 98.6872 493.727 93.6515 491.098Z" fill="#E2DFF4"/>
<path d="M109.382 489.957C185.992 434.575 304.002 528.077 305.177 529.022C311.627 534.218 321.068 533.209 326.269 526.76C331.468 520.312 330.456 510.869 324.007 505.668C322.642 504.567 290.08 478.502 245.976 460.146C195.525 439.143 150.254 436.861 113.446 453.19L93.6511 491.099C98.6873 493.727 104.778 493.286 109.382 489.957Z" fill="#BEBCDD"/>
<path d="M299.237 595.47C300.235 591.332 299.422 586.97 297.015 583.457C293.364 578.155 209.134 457.529 108.824 462.04C55.1942 377.157 -91.9252 376.968 -98.3626 377.004C-102.621 377.036 -106.665 378.862 -109.49 382.046L-146.41 423.606L-137.519 441.003L30.0527 479.731C30.0527 479.731 42.0338 595.054 137.177 535.668L278.966 663.435L286.734 649.974L299.237 595.47Z" fill="#F9F9F9"/>
<path d="M286.23 649.522L299.239 595.471C300.235 591.333 299.425 586.966 297.013 583.459C293.363 578.153 209.134 457.535 108.825 462.039L59.4 556.693C85.825 570.491 117.902 566.465 141.699 550.003L269.038 667.895L286.739 649.981L286.23 649.522Z" fill="#E2DFF4"/>
<path d="M269.793 674.455C268.708 673.888 267.677 673.179 266.724 672.326L137.998 557.094C114.199 573.555 83.0474 575.808 56.6233 562.01C30.1992 548.212 14.2436 521.362 14.1511 492.425L-153.977 452.65C-162.043 450.738 -167.029 442.66 -165.121 434.599C-163.213 426.538 -155.133 421.548 -147.07 423.456L33.6119 466.202C41.3619 468.034 46.3204 475.593 44.9268 483.425C41.166 504.571 51.4462 525.465 70.5086 535.419C89.571 545.372 112.592 541.867 127.794 526.696C133.425 521.076 142.462 520.829 148.394 526.138L286.734 649.974C292.906 655.499 293.43 664.982 287.906 671.154C283.234 676.373 275.731 677.554 269.793 674.455Z" fill="#BC8173"/>
<path d="M137.998 557.094L266.724 672.326C267.678 673.178 268.709 673.888 269.793 674.455C275.73 677.553 283.234 676.373 287.905 671.154C293.43 664.981 292.906 655.499 286.733 649.973L148.393 526.137C142.461 520.828 133.424 521.076 127.793 526.696C112.591 541.867 89.5701 545.372 70.5077 535.418L56.622 562.011C83.0469 575.809 114.199 573.557 137.998 557.094Z" fill="#865240"/>
<path d="M478.121 247.381L466.597 241.364L472.614 229.841C476.449 222.497 473.604 213.436 466.261 209.601C458.918 205.767 449.856 208.612 446.022 215.955L440.005 227.478L428.481 221.461C421.138 217.627 412.076 220.471 408.242 227.814C404.408 235.158 407.252 244.219 414.596 248.054L426.119 254.071L420.102 265.594C416.268 272.937 419.112 281.999 426.455 285.833C433.798 289.668 442.86 286.823 446.694 279.48L452.711 267.956L464.235 273.974C471.578 277.808 480.64 274.963 484.474 267.62C488.308 260.277 485.464 251.215 478.121 247.381Z" fill="#31BEBE"/>
<path d="M227.517 407.58C222.309 404.861 218.975 399.2 219.512 392.983C220.227 384.73 227.498 378.619 235.75 379.334L339.36 388.312C347.614 389.024 353.724 396.298 353.009 404.55C352.295 412.803 345.024 418.915 336.772 418.199L233.161 409.221C231.126 409.045 229.221 408.47 227.517 407.58Z" fill="#FABE2C"/>
<path d="M192.38 371.183C191.361 370.651 190.387 369.991 189.48 369.204C183.224 363.773 182.556 354.3 187.987 348.044L301.204 217.64C306.636 211.385 316.104 210.716 322.364 216.148C328.619 221.579 329.287 231.052 323.856 237.308L210.639 367.711C205.997 373.06 198.396 374.324 192.38 371.183Z" fill="#FABE2C"/>
<path d="M135.623 341.544C129.112 338.144 125.922 330.389 128.438 323.261L166.096 216.577C168.854 208.765 177.421 204.668 185.234 207.425C193.037 210.175 197.143 218.751 194.386 226.564L156.728 333.248C153.971 341.06 145.403 345.157 137.59 342.4C136.906 342.157 136.249 341.871 135.623 341.544Z" fill="#FED843"/>
<path d="M71.5041 326.111C68.1012 324.334 65.3763 321.258 64.1366 317.307L23.475 187.776C20.9933 179.873 25.3895 171.454 33.2936 168.973C41.1963 166.492 49.6155 170.888 52.0971 178.791L92.7588 308.322C95.2404 316.225 90.8442 324.644 82.9402 327.125C78.9873 328.365 74.9071 327.888 71.5041 326.111Z" fill="#FED843"/>
<path d="M256.578 179.079C263.921 182.913 272.983 180.069 276.817 172.725C280.652 165.382 277.807 156.32 270.464 152.486C263.121 148.651 254.059 151.496 250.225 158.839C246.39 166.183 249.235 175.244 256.578 179.079Z" fill="#FED843"/>
<path d="M336.4 320.031C343.743 323.866 352.805 321.021 356.639 313.678C360.474 306.334 357.629 297.273 350.286 293.438C342.942 289.604 333.881 292.448 330.046 299.792C326.212 307.135 329.056 316.197 336.4 320.031Z" fill="#AD77E3"/>
<path d="M276.817 172.725C280.652 165.381 277.807 156.32 270.464 152.486L256.578 179.078C263.921 182.913 272.983 180.068 276.817 172.725Z" fill="#FABE2C"/>
<path d="M64.7971 96.9872C41.8247 84.9918 32.8944 56.5437 44.8898 33.5713C56.8853 10.5989 85.3334 1.6686 108.306 13.664C131.278 25.6595 140.208 54.1076 128.213 77.08C116.218 100.052 87.7695 108.983 64.7971 96.9872Z" fill="#FF6666"/>
</g>
<g style="mix-blend-mode:multiply" opacity="0.1" clip-path="url(#clip1_1_5)">
<path d="M1466.54 -75.3613C1471.02 -71.8689 1473.14 -66.1445 1472.02 -60.5746C1453.4 32.1053 1587.42 100.711 1588.78 101.392C1596.18 105.115 1599.16 114.126 1595.45 121.525C1591.73 128.924 1582.73 131.917 1575.33 128.207C1573.76 127.422 1536.54 108.601 1501.54 76.082C1461.51 38.8847 1440.66 -1.36304 1440.25 -41.6284C1401.11 -32.1808 1356.98 -42.5623 1311.13 -72.2905C1271.04 -98.2741 1243.69 -129.768 1242.55 -131.095C1237.14 -137.37 1237.84 -146.841 1244.11 -152.251C1250.39 -157.659 1259.86 -156.955 1265.27 -150.685C1266.26 -149.544 1365.54 -36.3555 1450.86 -77.0665C1455.98 -79.514 1462.05 -78.853 1466.54 -75.3613Z" fill="#E2DFF4"/>
<path d="M1450.86 -77.0665C1365.54 -36.3549 1266.26 -149.544 1265.27 -150.685C1259.86 -156.955 1250.39 -157.659 1244.11 -152.251C1237.84 -146.841 1237.14 -137.37 1242.55 -131.095C1243.69 -129.767 1271.04 -98.2741 1311.13 -72.2905C1356.98 -42.5615 1401.11 -32.1807 1440.25 -41.6284L1466.54 -75.362C1462.05 -78.853 1455.98 -79.514 1450.86 -77.0665Z" fill="#BEBCDD"/>
<path d="M1283.06 -214.983C1281.33 -211.092 1281.35 -206.655 1283.08 -202.766C1285.72 -196.895 1346.9 -63.0942 1446.39 -49.5038C1483.89 43.6359 1628.58 70.2627 1634.92 71.3849C1639.11 72.1183 1643.42 71.0495 1646.77 68.4249L1690.56 34.1765L1684.94 15.4648L1527.06 -52.7492C1527.06 -52.7492 1536 -168.347 1431.73 -127.028L1315.21 -278.198L1305.15 -266.352L1283.06 -214.983Z" fill="#F9F9F9"/>
<path d="M1326.22 -287.39C1327.18 -286.637 1328.07 -285.755 1328.85 -284.744L1434.77 -148.253C1461.14 -160.169 1492.19 -156.786 1515.71 -138.464C1539.22 -120.142 1550.09 -90.861 1544.98 -62.3787L1703.22 6.96626C1710.81 10.2959 1714.26 19.1387 1710.94 26.7258C1707.61 34.3129 1698.77 37.769 1691.18 34.4434L1521.12 -40.0803C1513.83 -43.2757 1510.31 -51.6022 1513.09 -59.0566C1520.59 -79.1819 1514.23 -101.583 1497.27 -114.801C1480.3 -128.019 1457.03 -128.708 1439.35 -116.516C1432.8 -112 1423.86 -113.381 1418.98 -119.669L1305.15 -266.352C1300.07 -272.897 1301.26 -282.319 1307.8 -287.399C1313.34 -291.692 1320.93 -291.506 1326.22 -287.39Z" fill="#BC8173"/>
<path d="M1044.52 95.2878L1054.78 103.278L1046.79 113.532C1041.7 120.067 1042.87 129.492 1049.4 134.584C1055.93 139.675 1065.36 138.506 1070.45 131.971L1078.44 121.717L1088.7 129.707C1095.23 134.799 1104.66 133.629 1109.75 127.095C1114.84 120.56 1113.67 111.135 1107.14 106.043L1096.88 98.0532L1104.87 87.7988C1109.96 81.2644 1108.79 71.839 1102.26 66.7474C1095.72 61.6558 1086.3 62.8255 1081.21 69.3598L1073.22 79.6142L1062.96 71.6239C1056.43 66.5323 1047 67.702 1041.91 74.2364C1036.82 80.7708 1037.99 90.1962 1044.52 95.2878Z" fill="#31BEBE"/>
<path d="M1319.84 -17.2626C1324.47 -13.6516 1326.74 -7.48413 1325.09 -1.46493C1322.9 6.52583 1314.65 11.2307 1306.66 9.0435L1206.35 -18.4095C1198.36 -20.5935 1193.66 -28.8465 1195.85 -36.8358C1198.03 -44.8266 1206.28 -49.5314 1214.27 -47.3443L1314.58 -19.8913C1316.55 -19.3521 1318.32 -18.4439 1319.84 -17.2626Z" fill="#FABE2C"/>
<path d="M1347.86 24.8569C1348.77 25.5637 1349.61 26.3873 1350.36 27.3251C1355.54 33.7921 1354.49 43.2309 1348.02 48.4083L1213.21 156.341C1206.75 161.518 1197.31 160.475 1192.13 154.006C1186.95 147.539 1188 138.1 1194.47 132.922L1329.28 24.9902C1334.8 20.5634 1342.51 20.6853 1347.86 24.8569Z" fill="#FABE2C"/>
<path d="M1398.37 64.214C1404.16 68.7285 1405.91 76.9305 1402.15 83.4902L1345.93 181.669C1341.81 188.858 1332.65 191.349 1325.46 187.232C1318.28 183.125 1315.78 173.951 1319.9 166.761L1376.12 68.5816C1380.23 61.3929 1389.4 58.9019 1396.59 63.0186C1397.22 63.3801 1397.81 63.7801 1398.37 64.214Z" fill="#FED843"/>
<path d="M1458.67 90.9197C1461.7 93.2793 1463.83 96.7945 1464.33 100.905L1481.05 235.634C1482.07 243.854 1476.24 251.346 1468.02 252.366C1459.8 253.386 1452.3 247.549 1451.28 239.328L1434.56 104.599C1433.54 96.3785 1439.38 88.8865 1447.6 87.8663C1451.71 87.3568 1455.64 88.5601 1458.67 90.9197Z" fill="#FED843"/>
<path d="M1250.18 202.295C1243.65 197.203 1234.22 198.373 1229.13 204.908C1224.04 211.442 1225.21 220.867 1231.74 225.959C1238.28 231.051 1247.7 229.882 1252.8 223.347C1257.89 216.812 1256.72 207.387 1250.18 202.295Z" fill="#FED843"/>
<path d="M1196.99 49.2918C1190.46 44.1999 1181.03 45.3696 1175.94 51.9042C1170.85 58.4389 1172.02 67.8641 1178.56 72.956C1185.09 78.0478 1194.52 76.8782 1199.61 70.3435C1204.7 63.8088 1203.53 54.3836 1196.99 49.2918Z" fill="#AD77E3"/>
<path d="M1229.13 204.908C1224.04 211.443 1225.21 220.868 1231.74 225.959L1250.18 202.295C1243.65 197.204 1234.22 198.373 1229.13 204.908Z" fill="#FABE2C"/>
<path d="M1424.09 317.518C1444.53 333.447 1448.2 363.037 1432.27 383.479C1416.34 403.921 1386.75 407.593 1366.31 391.665C1345.87 375.736 1342.2 346.146 1358.13 325.703C1374.06 305.261 1403.65 301.589 1424.09 317.518Z" fill="#FF6666"/>
</g>
<defs>
<clipPath id="clip0_1_5">
<rect width="512" height="512" fill="white" transform="translate(65.9866 -9) rotate(27.5721)"/>
</clipPath>
<clipPath id="clip1_1_5">
<rect width="512" height="512" fill="white" transform="translate(1403.87 421.565) rotate(-142.074)"/>
</clipPath>
</defs>
</svg>
